{"title":"Alice in Chains MTV Unplugged DVDRip 5.1 sync'ed","uid":6064671,"size":1232969728,"categoryP":"video","categoryS":"music_videos","magnet":"?xt=urn:btih:9d3edff2e617980443cfad398799c88f642d34dd&amp;dn=Alice+in+Chains+MTV+Unplugged+DVDRip+5.1+sync%5C%27ed&amp;tr=udp%3A%2F%2Ftracker.openbittorrent.com%3A80&amp;tr=udp%3A%2F%2Fopen.demonii.com%3A1337&amp;tr=udp%3A%2F%2Ftracker.coppersurfer.tk%3A6969&amp;tr=udp%3A%2F%2Fexodus.desync.com%3A6969","seeders":2,"leechers":0,"uploader":"bhobson333","files":1,"time":1293295721,"description":"Another of my bloat reductions.  This was only available as a 4.2 GB download of a PAL DVD. This is a 1.2 GB AVI rip of that DVD with the 5.1 audio track intact and synced properly with the video.\n\nPerformers: Layne Staley - Jerry Cantrell - Mike Inez - Sean Kinney - Mike Starr\n\nStyle: Grunge, alternative metal\n\nTrack list:\n\n1. Nutshell\n2. Brother\n3. No Excuses\n4. Sludge Factory\n5. Down In A Hole\n6. Angry Chair\n7. Rooster\n8. Got Me Wrong\n9. Heaven Beside You\n10. Would?\n11. Frogs\n12. Over Now\n13. Killer Is Me \n\nMEDIAINFO:\n\nGeneral\nComplete name                    : AliceinChainsMTVUnpluggedDVDRip5.1.avi\nFormat                           : AVI\nFormat/Info                      : Audio Video Interleave\nFile size                        : 1.09 GiB\nDuration                         : 1h 13mn\nOverall bit rate                 : 2 119 Kbps\nWriting application              : VirtualDubMod 1.5.10.2 (build 2540/release)\nWriting library                  : VirtualDubMod build 2540/release\n\nVideo\nID                               : 0\nFormat                           : MPEG-4 Visual\nFormat profile                   : Advanced Simple@L5\nFormat settings, BVOP            : Yes\nFormat settings, QPel            : No\nFormat settings, GMC             : No warppoints\nFormat settings, Matrix          : Default (H.263)\nMuxing mode                      : Packed bitstream\nCodec ID                         : XVID\nCodec ID/Hint                    : XviD\nDuration                         : 1h 13mn\nBit rate                         : 1 662 Kbps\nWidth                            : 480 pixels\nHeight                           : 368 pixels\nDisplay aspect ratio             : 4:3\nFrame rate                       : 25.000 fps\nResolution                       : 8 bits\nColorimetry                      : 4:2:0\nScan type                        : Progressive\nBits/(Pixel*Frame)               : 0.376\nStream size                      : 873 MiB (78%)\nWriting library                  : XviD 1.0.3 (UTC 2004-12-20)\n\nAudio\nID                               : 1\nFormat                           : AC-3\nFormat/Info                      : Audio Coding 3\nFormat_Settings_ModeExtension    : CM (complete main)\nCodec ID                         : 2000\nDuration                         : 1h 13mn\nBit rate mode                    : Constant\nBit rate                         : 448 Kbps\nChannel(s)                       : 6 channels\nChannel positions                : Front: L C R, Side: L R, LFE\nSampling rate                    : 48.0 KHz\nStream size                      : 235 MiB (21%)\nAlignment                        : Split accross interleaves\nInterleave, duration             : 40 ms (1.00 video frame)\nInterleave, preload duration     : 500 ms\n\n\n","torrent":{"xt":"urn:btih:9d3edff2e617980443cfad398799c88f642d34dd","amp;dn":"Alice+in+Chains+MTV+Unplugged+DVDRip+5.1+sync%5C%27ed","amp;tr":["udp%3A%2F%2Ftracker.openbittorrent.com%3A80","udp%3A%2F%2Fopen.demonii.com%3A1337","udp%3A%2F%2Ftracker.coppersurfer.tk%3A6969","udp%3A%2F%2Fexodus.desync.com%3A6969"],"infoHash":"9d3edff2e617980443cfad398799c88f642d34dd","infoHashBuffer":{"type":"Buffer","data":[157,62,223,242,230,23,152,4,67,207,173,57,135,153,200,143,100,45,52,221]},"announce":[],"urlList":[]}}